<svg width="49" height="49" viewBox="0 0 49 49" fill="none" xmlns="http://www.w3.org/2000/svg">
<path d="M49 49H0V0H49V49ZM1.62825 47.3718H47.3718V1.62825H1.62825V47.3718Z" fill="white"/>
<path d="M12.0253 16.8252H9.76953V15.3496C11.9236 15.3496 13.7384 15.3496 15.9094 15.3496V16.8252H13.6536V22.7615H12.0084V16.8252H12.0253Z" fill="white"/>
<path d="M28.0707 22.558H26.2389L24.3393 20.1326H23.152V22.558H21.5068V15.1631C22.7111 15.1631 23.8305 15.1631 25.0177 15.1631C26.7986 15.1631 27.7484 16.3503 27.7484 17.6563C27.7315 18.6231 27.4601 19.4712 26.0354 19.98L28.0707 22.4393V22.558ZM23.152 16.5878V18.7418H25.0347C25.7979 18.7418 26.1202 18.1652 26.1202 17.7072C26.1032 17.1984 25.781 16.5878 25.0177 16.5878H23.152V16.5878Z" fill="white"/>
<path d="M34.5664 22.4732V15.0613H36.2116V22.4562H34.5664V22.4732Z" fill="white"/>
<path d="M14.6717 31.2419L14.57 28.9183V26.425H16.2321V33.82H14.8074L11.1269 29.0879L11.1948 31.5133V33.82H9.51562V26.425H10.9403L14.6717 31.2419Z" fill="white"/>
<path d="M27.9353 32.6498C27.172 33.396 26.1883 33.7353 25.0859 33.7353C22.2703 33.7353 21.134 31.9204 21.134 29.9021C21.117 27.9855 22.3721 25.9841 25.0859 25.9841C26.1035 25.9841 27.0364 26.3742 27.7996 27.1205L26.765 28.1382C26.324 27.6972 25.6795 27.5276 25.0859 27.5276C23.4067 27.5276 22.7452 28.8336 22.7622 29.9021C22.7792 30.9876 23.3558 32.2088 25.0859 32.2088C25.6795 32.2088 26.4597 31.9374 26.9007 31.4964L27.9353 32.6498Z" fill="white"/>
<path d="M37.162 32.6666H33.3627L32.82 33.9386H31.0391L34.3634 26.5437H36.1613L39.4856 33.9386H37.7047L37.162 32.6666ZM35.2623 28.2059L33.9903 31.2079H36.5344L35.2623 28.2059Z" fill="white"/>
</svg>
